<?xml version="1.0"?>
<svg xmlns="http://www.w3.org/2000/svg" id="Icons" viewBox="0 0 60 60" width="512" height="512"><path d="M58,28H55a2,2,0,0,0-2,2H49V8.83A2.987,2.987,0,0,0,48.117,6.7L42.3.883A2.985,2.985,0,0,0,40.17,0H13a2,2,0,0,0-2,2V31H7a2,2,0,0,0-2-2H2a2,2,0,0,0-2,2V44a2,2,0,0,0,2,2H5a2,2,0,0,0,1.979-1.79A17.743,17.743,0,0,1,13.486,46.9l-.211.349a3.5,3.5,0,0,0,2.992,5.311,3.55,3.55,0,0,0,.872-.11c0,.01,0,.02,0,.031a3.506,3.506,0,0,0,3.393,2.668,3.584,3.584,0,0,0,.839-.1c.013,0,.024-.01.037-.013,0,.013,0,.026.006.038a3.5,3.5,0,0,0,3.393,2.67,3.536,3.536,0,0,0,.675-.082,3,3,0,0,0,5.485.9l.864-1.427,2.937,2.151a3,3,0,0,0,4.757-2.268c.02,0,.041,0,.062,0a3.479,3.479,0,0,0,3.5-3.466c.088.007.176.02.264.02a3.486,3.486,0,0,0,3.244-4.8,3.243,3.243,0,0,0,.847-.408,3.495,3.495,0,0,0,1.187-4.476,13.671,13.671,0,0,1,4.376-.84A2,2,0,0,0,55,45h3a2,2,0,0,0,2-2V30A2,2,0,0,0,58,28ZM5,44H2V31H5Zm48-2.953a14,14,0,0,0-5.814,1.308l-13.947-9.71a1.994,1.994,0,0,0-2.51.172l-5.09,4.73A1.547,1.547,0,0,1,23,36.45a1.515,1.515,0,0,1,.376-1.021l6.018-6.339a3.578,3.578,0,0,1,4.107-.716l6.568,3.3A2.938,2.938,0,0,0,41.42,32H53ZM45.586,7H42V3.414ZM13,2H40V7a2,2,0,0,0,2,2h5V30H41.42a.961.961,0,0,1-.441-.1l-6.571-3.3A5.413,5.413,0,0,0,31.94,26a5.552,5.552,0,0,0-3.566,1.309A28.832,28.832,0,0,0,24,27c-3.946,0-7.26,2.234-8.88,3.563A1.96,1.96,0,0,1,13.87,31H13ZM15.5,50.341a1.5,1.5,0,0,1-.508-2.061l1.881-3.115a1.484,1.484,0,0,1,.926-.68,1.52,1.52,0,0,1,.359-.044,1.5,1.5,0,0,1,1.308,2.235L17.552,49.83c0,.008-.008.017-.012.025A1.5,1.5,0,0,1,15.5,50.341Zm4.271,2.586a1.493,1.493,0,0,1-.519-2.031c0-.008.012-.013.017-.021h0l1.885-3.114c.01-.016.015-.034.024-.05l.49-.809a1.487,1.487,0,0,1,.926-.679,1.5,1.5,0,0,1,1.639,2.235l-2.4,3.966a1.489,1.489,0,0,1-.925.68A1.5,1.5,0,0,1,19.766,52.927Zm4.274,2.594a1.5,1.5,0,0,1-.5-2.061l1.885-3.111a1.489,1.489,0,0,1,.924-.679,1.527,1.527,0,0,1,.36-.043,1.485,1.485,0,0,1,.774.217,1.5,1.5,0,0,1,.5,2.062l-.916,1.515-.967,1.6a1.5,1.5,0,0,1-2.06.5Zm5.221,2a1,1,0,1,1-1.709-1.038h0l.256-.422,0-.005L29.176,53.8l.26-.429a1,1,0,0,1,1.373-.336,1,1,0,0,1,.336,1.374Zm17.055-10.8a1.576,1.576,0,0,1-1.786-.121l-2.94-2.151a1,1,0,1,0-1.18,1.616l2.94,2.149a3.79,3.79,0,0,0,.628.366.992.992,0,0,0,.262.287,1.5,1.5,0,0,1-1.77,2.423l-.8-.587,0,0h0l-3.414-2.5a1,1,0,0,0-1.182,1.614l3.423,2.5a1.5,1.5,0,0,1-1.78,2.415l-.372-.269c-.009-.008-.017-.017-.026-.024l0,0L36.587,53.19a1,1,0,0,0-1.174,1.62l1.733,1.255a.98.98,0,0,1,.378.631,1,1,0,0,1-1.573.967l-3.079-2.254a3,3,0,0,0-2.686-4.518,3.47,3.47,0,0,0-3.752-3.245,3.489,3.489,0,0,0-4.322-3.367,3.526,3.526,0,0,0-.749.287,3.5,3.5,0,0,0-6.207-.436l-.633,1.05A20.345,20.345,0,0,0,7,42.169V33h6.87a4,4,0,0,0,2.514-.887C17.8,30.951,20.677,29,24,29c.929,0,1.8.039,2.617.11l-4.711,4.962a3.55,3.55,0,0,0,5.124,4.91l5.059-4.7,14.3,9.956A1.491,1.491,0,0,1,47,45.45,1.515,1.515,0,0,1,46.316,46.714ZM58,43H55V30h3Z"></path><path d="M17,18a1,1,0,0,0-2,0,5.009,5.009,0,0,0,4,4.9V23a1,1,0,0,0,2,0v-.1a5,5,0,0,0,0-9.8V7.184A3,3,0,0,1,23,10a1,1,0,0,0,2,0,5.009,5.009,0,0,0-4-4.9V5a1,1,0,0,0-2,0v.1a5,5,0,0,0,0,9.8v5.917A3,3,0,0,1,17,18Zm6,0a3,3,0,0,1-2,2.816V15.184A3,3,0,0,1,23,18Zm-6-8a3,3,0,0,1,2-2.816v5.632A3,3,0,0,1,17,10Z"></path><path d="M28,7h9a1,1,0,0,0,0-2H28a1,1,0,0,0,0,2Z"></path><path d="M28,12H38a1,1,0,0,0,0-2H28a1,1,0,0,0,0,2Z"></path><path d="M28,17H43a1,1,0,0,0,0-2H28a1,1,0,0,0,0,2Z"></path><path d="M28,22H43a1,1,0,0,0,0-2H28a1,1,0,0,0,0,2Z"></path></svg>
