<svg id="Capa_1" height="512" width="512" xmlns="http://www.w3.org/2000/svg"><path d="M371.207 108.554c-4.347-3.408-10.631-2.648-14.04 1.698L237.31 263.09c-3.408 4.346-2.647 10.632 1.698 14.04 4.289 3.363 10.682 2.583 14.04-1.698l119.857-152.838c3.408-4.346 2.648-10.632-1.698-14.04zM259.14 106.423c-21.712 0-39.375 17.74-39.375 39.546 1.982 52.392 76.777 52.378 78.751-.001-.001-21.805-17.664-39.545-39.376-39.545zm0 59.092c-10.684 0-19.375-8.768-19.375-19.546.977-25.895 37.778-25.889 38.751 0-.001 10.778-8.693 19.546-19.376 19.546zM309.552 239.715c0 21.806 17.663 39.546 39.375 39.546 52.165-1.986 52.151-77.114-.001-79.092-21.711.001-39.374 17.741-39.374 39.546zm58.751 0c0 10.778-8.692 19.546-19.376 19.546-25.667-.98-25.66-38.116 0-39.092 10.683.001 19.376 8.769 19.376 19.546zM136.045 96.955c-31.744 0-57.569 25.825-57.569 57.569v76.075c2.903 76.288 112.262 76.229 115.138 0v-76.075c0-31.744-25.825-57.569-57.569-57.569zm37.569 133.643c-1.895 49.784-73.261 49.747-75.138 0v-76.075c1.895-49.785 73.261-49.746 75.138 0zM241.796 396.47c11.238-.348 11.23-16.655 0-17h-20.01a8.5 8.5 0 0 0-8.5 8.5v59.269c.348 11.238 16.655 11.23 17 0v-21.696h9.602c11.238-.348 11.23-16.655 0-17h-9.602V396.47zM292.484 396.524c11.238-.348 11.23-16.655 0-17H272.57a8.5 8.5 0 0 0-8.5 8.5v59.161a8.5 8.5 0 0 0 8.5 8.5h19.914c11.238-.348 11.23-16.655 0-17H281.07v-12.581h9.576c11.238-.348 11.23-16.655 0-17h-9.576v-12.581zM345.132 396.524c11.238-.348 11.23-16.655 0-17h-19.913a8.5 8.5 0 0 0-8.5 8.5v59.161a8.5 8.5 0 0 0 8.5 8.5h19.913c11.238-.348 11.23-16.655 0-17h-11.413v-12.581h9.575c11.238-.348 11.23-16.655 0-17h-9.575v-12.581zM405.312 410.1c-7.157-2.64-13.833-5.511-16.063-6.486-1.069-.931-1.087-2.158-.987-2.848.123-.857.761-2.956 4.022-3.938 7.843-2.364 15.22 3.404 15.476 3.609a8.5 8.5 0 0 0 10.89-13.055c-.582-.488-14.422-11.908-31.27-6.832-8.633 2.601-14.743 9.421-15.946 17.8-1.132 7.887 2.288 15.474 8.925 19.801.376.245.77.459 1.18.642.347.155 8.6 3.829 17.892 7.256 1.852.683 7.839 3.204 7.166 6.974-2.781 9.338-18.784 6.265-23.917-.125a8.502 8.502 0 0 0-12.598 11.416c14.595 16.938 48.294 16.07 53.25-8.303 1.56-8.737-2.354-20.133-18.02-25.911zM148.098 381.523c-19.585 0-35.52 15.934-35.52 35.52 1.786 47.057 69.261 47.044 71.04 0 0-19.586-15.934-35.52-35.52-35.52zm0 54.04c-10.212 0-18.52-8.308-18.52-18.52.931-24.536 36.112-24.529 37.04 0 0 10.212-8.308 18.52-18.52 18.52zM89.928 380.542h-.084a8.5 8.5 0 0 0-8.417 8.582l.283 29.235-23.51-34.043a8.499 8.499 0 0 0-15.494 4.83v55.898c.348 11.238 16.655 11.23 17 0v-28.631L82.01 448.71c2.438 3.523 6.529 5.012 10.422 3.798 3.959-1.237 6.518-4.907 6.518-9.433l-.523-54.116a8.502 8.502 0 0 0-8.499-8.417z"/><path d="M512 66.151c-.742-70.563-95.7-90.794-125.599-28.015H267.988c-5.522 0-10 4.477-10 10s4.478 10 10 10h112.635c-4.974 37.813 25.756 73.212 63.816 73.928v194.3H20V92.988c0-19.217 15.635-34.852 34.852-34.852h124.89c5.523 0 10-4.477 10-10s-4.477-10-10-10H54.852C24.606 38.136 0 62.743 0 92.988l.001 363.634c0 30.244 24.605 54.85 54.85 54.85h354.741c30.244 0 54.85-24.605 54.85-54.85l-.002-327.163C491.88 121.483 512 96.131 512 66.151zm-65.932-45.932c25.327 0 45.932 20.605 45.932 45.932-3.041 60.874-88.838 60.837-91.859-.002 0-24.925 21.01-45.93 45.927-45.93zm-36.476 471.253H54.851c-19.216 0-34.85-15.633-34.85-34.85V346.366h424.44v110.257c0 19.216-15.633 34.849-34.849 34.849z"/><path d="M432.121 88.228c3.724 3.874 10.418 3.874 14.143 0l25.74-25.741c3.905-3.905 3.905-10.237 0-14.142-3.906-3.905-10.236-3.905-14.143 0l-18.669 18.669-6.555-6.555c-3.905-3.905-10.235-3.905-14.143 0-3.905 3.905-3.905 10.237 0 14.142zM214.61 51.965c1.641 3.94 5.708 6.447 9.964 6.142 4.354-.313 8.047-3.542 9.021-7.782 1.942-8.46-7.599-15.164-14.936-10.733-4.18 2.525-5.896 7.868-4.049 12.373z"/></svg>