<svg id="Capa_1" height="512" width="512" xmlns="http://www.w3.org/2000/svg"><path d="M304.985 289.001h-96.044c-4.143 0-7.5 3.357-7.5 7.5s3.357 7.5 7.5 7.5h96.044c4.143 0 7.5-3.357 7.5-7.5s-3.357-7.5-7.5-7.5zM207.21 238.397V217.13h13.567c4.143 0 7.5-3.357 7.5-7.5s-3.357-7.5-7.5-7.5H207.21v-12.697h15.386c4.143 0 7.5-3.357 7.5-7.5s-3.357-7.5-7.5-7.5H199.71a7.499 7.499 0 0 0-7.5 7.5v56.464c0 4.143 3.357 7.5 7.5 7.5s7.5-3.357 7.5-7.5zM280.885 189.434c4.143 0 7.5-3.357 7.5-7.5s-3.357-7.5-7.5-7.5h-22.886a7.499 7.499 0 0 0-7.5 7.5v56.464c0 4.143 3.357 7.5 7.5 7.5s7.5-3.357 7.5-7.5v-21.267h13.567c4.143 0 7.5-3.357 7.5-7.5s-3.357-7.5-7.5-7.5h-13.567v-12.697zM335.839 188.95c4.143 0 7.5-3.357 7.5-7.5s-3.357-7.5-7.5-7.5H312.09a7.499 7.499 0 0 0-7.5 7.5v56.361c0 4.143 3.357 7.5 7.5 7.5h23.749c4.143 0 7.5-3.357 7.5-7.5s-3.357-7.5-7.5-7.5H319.59V217.13h14.498c4.143 0 7.5-3.357 7.5-7.5s-3.357-7.5-7.5-7.5H319.59v-13.18zM411.602 195.973c0-12.286-10.371-22.282-23.119-22.282H373.35a7.499 7.499 0 0 0-7.5 7.5v56.881c0 4.143 3.357 7.5 7.5 7.5s7.5-3.357 7.5-7.5v-15.069l17.623 20.024a7.48 7.48 0 0 0 5.633 2.545 7.5 7.5 0 0 0 5.627-12.455l-14.056-15.97c9.235-2.923 15.925-11.308 15.925-21.174zm-23.12 7.283c-1.774 0-4.729.012-7.553.025-.014-2.748-.032-11.709-.04-14.591h7.593c4.401 0 8.119 3.335 8.119 7.282.001 3.949-3.717 7.284-8.119 7.284zM136.339 174.225c-19.817 0-35.94 16.123-35.94 35.94s16.123 35.94 35.94 35.94c19.818 0 35.941-16.123 35.941-35.94s-16.123-35.94-35.941-35.94zm0 56.88c-11.547 0-20.94-9.394-20.94-20.94s9.394-20.94 20.94-20.94 20.941 9.394 20.941 20.94-9.394 20.94-20.941 20.94z"/><path d="m490.044 235.865-35.943-36.346V35.704C454.101 16.017 438.084 0 418.396 0H95.525C75.838 0 59.82 16.017 59.82 35.704V196.8l-38.147 39.36a7.72 7.72 0 0 0-.425.485c-2.211 2.361-3.467 5.476-3.467 8.85v230.12c0 20.063 16.322 36.385 36.386 36.385h403.666c20.063 0 36.386-16.322 36.386-36.385V245.389c0-3.711-1.526-7.108-4.175-9.524zm-20.013 1.095-15.93 9.272v-25.381zM59.82 247.351l-17.968-10.458 17.968-18.539zm419.399 228.264c0 11.792-9.594 21.385-21.386 21.385H54.167c-11.792 0-21.386-9.593-21.386-21.385V248.968l214.691 124.96a.11.11 0 0 0 .011.006l165.039 96.06a7.495 7.495 0 0 0 10.255-2.71 7.501 7.501 0 0 0-2.71-10.255L270.91 370.213l132.1-76.887a7.501 7.501 0 0 0-7.545-12.965l-138.482 80.604a1.957 1.957 0 0 1-1.962 0l-14.561-8.475-.008-.004L74.82 256.081V35.704C74.82 24.288 84.108 15 95.525 15h322.871c11.416 0 20.704 9.288 20.704 20.704v219.259l-17.112 9.96a7.5 7.5 0 1 0 7.545 12.964l20.626-12.005c.028-.015.055-.033.083-.048l28.977-16.866z"/><path d="M213.399 150.487h87.128c8.979 0 16.283-7.305 16.283-16.283V77.302c0-8.979-7.305-16.283-16.283-16.283h-18.639v-8.007c0-9.726-7.912-17.638-17.638-17.638h-14.575c-9.726 0-17.638 7.912-17.638 17.638v8.007h-18.639c-8.979 0-16.283 7.305-16.283 16.283v56.902c.001 8.979 7.306 16.283 16.284 16.283zm33.639-97.475a2.642 2.642 0 0 1 2.638-2.638h14.575a2.642 2.642 0 0 1 2.638 2.638v8.007h-19.851zm-34.922 24.29c0-.708.575-1.283 1.283-1.283h87.128c.708 0 1.283.575 1.283 1.283v56.902c0 .708-.575 1.283-1.283 1.283h-87.128a1.284 1.284 0 0 1-1.283-1.283z"/></svg>