<?xml version="1.0" standalone="no"?>
<!DOCTYPE svg PUBLIC "-//W3C//DTD SVG 20010904//EN"
 "http://www.w3.org/TR/2001/REC-SVG-20010904/DTD/svg10.dtd">
<svg version="1.0" xmlns="http://www.w3.org/2000/svg" width="260.000000pt" height="260.000000pt" viewBox="0 0 260.000000 260.000000" preserveAspectRatio="xMidYMid meet">
<metadata>
Created by potrace 1.14, written by Peter Selinger 2001-2017
</metadata>
<g transform="translate(0.000000,260.000000) scale(0.100000,-0.100000)" fill="#000000" stroke="none">
<path d="M689 2076 c-3 -93 -1 -1278 3 -1281 2 -3 27 28 54 68 147 214 178
257 185 257 4 0 147 -139 316 -308 l309 -309 178 -1 179 0 -313 313 -312 313
128 4 c109 5 139 10 193 31 269 110 381 425 243 681 -43 79 -131 162 -215 201
-39 19 -85 37 -102 41 -16 4 -213 8 -437 9 l-408 3 -1 -22z m826 -240 c86 -33
155 -137 155 -235 0 -75 -58 -163 -135 -204 -38 -21 -55 -22 -322 -25 l-283
-2 0 239 c0 151 4 241 10 243 5 2 127 2 270 2 219 -1 267 -4 305 -18z"></path>
<path d="M1003 783 l-53 -4 0 -58 0 -58 60 -1 c33 0 60 4 61 9 0 5 1 25 1 44
0 63 -2 75 -9 73 -5 -1 -32 -3 -60 -5z"></path>
<path d="M790 721 l0 -59 60 -1 60 0 0 60 0 59 -60 0 -60 0 0 -59z"></path>
<path d="M828 622 l-38 -3 0 -58 0 -58 60 0 60 0 0 58 c0 63 -5 67 -82 61z"></path>
<path d="M978 622 c-27 -3 -28 -5 -28 -62 l0 -59 48 0 c76 1 78 3 76 60 -2 28
-5 53 -8 57 -7 6 -50 8 -88 4z"></path>
</g>
</svg>
