<svg version="1.0" xmlns="http://www.w3.org/2000/svg" width="346.667" height="346.667" viewBox="0 0 260 260"><path d="M68.9 52.4c-.3 9.3-.1 127.8.3 128.1.2.3 2.7-2.8 5.4-6.8C89.3 152.3 92.4 148 93.1 148c.4 0 14.7 13.9 31.6 30.8l30.9 30.9 17.8.1h17.9L160 178.5l-31.2-31.3 12.8-.4c10.9-.5 13.9-1 19.3-3.1 26.9-11 38.1-42.5 24.3-68.1-4.3-7.9-13.1-16.2-21.5-20.1-3.9-1.9-8.5-3.7-10.2-4.1-1.6-.4-21.3-.8-43.7-.9L69 50.2l-.1 2.2zm82.6 24c8.6 3.3 15.5 13.7 15.5 23.5 0 7.5-5.8 16.3-13.5 20.4-3.8 2.1-5.5 2.2-32.2 2.5L93 123V99.1c0-15.1.4-24.1 1-24.3.5-.2 12.7-.2 27-.2 21.9.1 26.7.4 30.5 1.8z"/><path d="m100.3 181.7-5.3.4v11.6l6 .1c3.3 0 6-.4 6.1-.9 0-.5.1-2.5.1-4.4 0-6.3-.2-7.5-.9-7.3-.5.1-3.2.3-6 .5zM79 187.9v5.9l6 .1h6V182H79v5.9zM82.8 197.8l-3.8.3v11.6h12v-5.8c0-6.3-.5-6.7-8.2-6.1zM97.8 197.8c-2.7.3-2.8.5-2.8 6.2v5.9h4.8c7.6-.1 7.8-.3 7.6-6-.2-2.8-.5-5.3-.8-5.7-.7-.6-5-.8-8.8-.4z"/></svg>