<?xml version="1.0"?>
<svg xmlns="http://www.w3.org/2000/svg" id="Icons" viewBox="0 0 60 60" width="512" height="512"><path d="M44.828,44.543a1.965,1.965,0,0,0,.495.111c.054,0,.108.006.161.006a1.983,1.983,0,0,0,1.3-.48l4.52-3.87a2,2,0,0,0,.219-2.821L48,33.386V2a2,2,0,0,0-2-2H20.414A2.015,2.015,0,0,0,19,.586L12.586,7A2.015,2.015,0,0,0,12,8.414V32.072L8.7,34.9a2.005,2.005,0,0,0-.218,2.821l3.88,4.519a2,2,0,0,0,1.522.7,2.044,2.044,0,0,0,.4-.043l.906,1.085a2.954,2.954,0,0,0,2.185,4.44,2.948,2.948,0,0,0,2.59,3.026,2.942,2.942,0,0,0,2.588,3.019A2.971,2.971,0,0,0,26.6,57.319L28,58.958a2.968,2.968,0,0,0,2.041,1.033q.117.009.234.009a2.96,2.96,0,0,0,1.939-.717,2.922,2.922,0,0,0,1.014-1.869,2.991,2.991,0,0,0,3.022-2.591,2.938,2.938,0,0,0,2.005-.718,2.981,2.981,0,0,0,1.015-1.87,3.1,3.1,0,0,0,2-.717,3,3,0,0,0,.327-4.21Zm-11.64-7.049a1,1,0,0,0-1.305-1.515l-.755.648,0,0-5.281,4.527a.989.989,0,1,1-1.287-1.5l6.29-5.391a.979.979,0,0,1,.58-.237l3.794-.247,8.091,9.427L40.3,45.789ZM50,38.79l-4.52,3.868L35.371,30.879,39.891,27,50,38.789ZM19,3.414V7H15.414ZM14,9h5a2,2,0,0,0,2-2V2H46V31.054L41.409,25.7a2.005,2.005,0,0,0-2.821-.219l-4.52,3.88a2,2,0,0,0-.429,2.517L31.3,32.03a3,3,0,0,0-1.75.714l-.613.525-2.422-.636a1.975,1.975,0,0,0-.133-2.414L22.51,25.7a2.006,2.006,0,0,0-2.821-.219L14,30.358ZM10,36.419,20.99,27l3.87,4.52h0L13.879,40.938Zm7.115,8.3a.989.989,0,1,1-.107,1.4A.984.984,0,0,1,17.116,44.723Zm2.246,3.7a.989.989,0,1,1,1.628.827,1.009,1.009,0,0,1-.718.234.986.986,0,0,1-.91-1.061Zm2.93,2.345a.991.991,0,0,1,1.4.107h0a.991.991,0,0,1-.108,1.394,1,1,0,0,1-.72.234.989.989,0,0,1-.568-1.736Zm2.481,4.414a.989.989,0,1,1,1.395.107A.993.993,0,0,1,24.773,55.177ZM39.973,50a.991.991,0,0,1-1.395-.106l-1.94-2.265a1,1,0,0,0-1.52,1.3l1.941,2.264v0a.989.989,0,0,1-1.5,1.287v0l-1.294-1.509a1,1,0,1,0-1.52,1.3l1.294,1.51,0,0a.991.991,0,0,1-.109,1.394,1.009,1.009,0,0,1-.718.234.976.976,0,0,1-.674-.34v0l-.646-.755a1,1,0,0,0-1.52,1.3l.647.755h0a.964.964,0,0,1,.227.733.945.945,0,0,1-.336.661.958.958,0,0,1-.718.232.98.98,0,0,1-.675-.34l-1.411-1.645a2.962,2.962,0,0,0-2.2-4.43,2.942,2.942,0,0,0-2.59-3.019,2.964,2.964,0,0,0-.707-2.014h0a2.97,2.97,0,0,0-1.881-1.005,2.963,2.963,0,0,0-4.025-2.857l-.748-.9,8.8-7.549,2.327.611-3.832,3.286a2.988,2.988,0,0,0,3.889,4.537L31.671,38.8,40.078,48.6a.971.971,0,0,1,.23.734A.947.947,0,0,1,39.973,50Z"/><path d="M18.293,15.707A1,1,0,0,0,19,16l.071,0a1,1,0,0,0,.729-.4l3-4a1,1,0,1,0-1.6-1.2l-2.308,3.078-.185-.185a1,1,0,0,0-1.414,1.414Z"/><path d="M32,12H42a1,1,0,0,0,0-2H32a1,1,0,0,0,0,2Z"/><path d="M27,12h1a1,1,0,0,0,0-2H27a1,1,0,0,0,0,2Z"/><path d="M27,16h7a1,1,0,0,0,0-2H27a1,1,0,0,0,0,2Z"/><path d="M22.8,19.6a1,1,0,1,0-1.6-1.2l-2.308,3.078-.185-.185a1,1,0,0,0-1.414,1.414l1,1A1,1,0,0,0,19,24l.071,0a1,1,0,0,0,.729-.4Z"/><path d="M42,18H32a1,1,0,0,0,0,2H42a1,1,0,0,0,0-2Z"/><path d="M27,20h1a1,1,0,0,0,0-2H27a1,1,0,0,0,0,2Z"/><path d="M27,24h7a1,1,0,0,0,0-2H27a1,1,0,0,0,0,2Z"/></svg>
