<svg id="Capa_1" enable-background="new 0 0 512 512" height="512" viewBox="0 0 512 512" width="512" xmlns="http://www.w3.org/2000/svg"><g><path d="m510.94 214.025c-1.696-3.383-5.156-5.52-8.94-5.52h-15.817c-10.467-50.91-37.822-97.27-77.646-131.294-42.463-36.279-96.644-56.258-152.563-56.258-1.977 0-3.961.033-5.941.082l-25.58-19.1c-5.965-4.772-16.106-.192-15.984 8.015v15.82c-50.901 10.469-97.253 37.829-131.271 77.66-36.272 42.47-56.248 96.661-56.248 152.589 0 1.97.033 3.956.082 5.941l-19.098 25.586c-4.77 5.965-.191 16.109 8.015 15.987h15.817c10.467 50.91 37.822 97.27 77.646 131.295 42.463 36.279 96.644 56.258 152.563 56.258 1.979 0 3.975-.034 5.969-.083l25.554 19.098c5.836 4.673 16.155.241 15.982-8.012v-15.815c22.182-4.561 43.554-12.303 63.526-23.036 19.582-10.514 37.574-23.757 53.486-39.352 3.93-3.86 4-10.213.14-14.144-3.372-3.571-10.136-4.18-14.141-.149-31.614 30.988-71.267 51.224-114.662 58.506-4.84.811-8.35 4.961-8.35 9.863v4.181l-48.265-39.921 48.775-32.589c1.278 4.367 6.766 7.913 11.902 6.572 47.401-11.518 88.972-45.686 109.561-90.185 7.06-15.054 11.77-31.047 14.021-47.541l13.103 20.449c3.122 5.158 11.672 6.389 16.025 1.099l21.59-25.287.008-.004c-1.91 22.136-7.201 43.722-15.742 64.148-2.13 5.091.28 10.963 5.371 13.094 4.259 2.004 11.175-.21 13.081-5.371 5.88-14.064 10.391-28.778 13.421-43.723 3.462-17.131 5.04-34.988 4.589-52.804l19.097-25.585c2.261-3.035 2.619-7.086.924-10.47zm-42.927 6.138c.809 4.819 4.978 8.348 9.863 8.348h4.176l-39.912 48.271s-32.131-48.139-32.581-48.777c1.852-.613 3.507-1.762 4.738-3.335 1.896-2.424 2.57-5.587 1.827-8.574-8.727-35.12-29.236-66.907-57.753-89.507-23.462-18.594-50.752-30.184-79.919-34.111l20.421-13.09c5.29-3.18 6.258-11.681 1.099-16.028l-25.286-21.597c97.135 8.311 176.953 80.766 193.327 178.4zm-247.889-176.221c4.818-.808 8.347-4.979 8.347-9.865v-4.176l48.262 39.918-48.768 32.586c-.612-1.852-1.762-3.508-3.335-4.739-2.424-1.896-5.587-2.57-8.572-1.827-35.114 8.728-66.896 29.242-89.49 57.763-18.591 23.467-30.179 50.761-34.106 79.934l-13.087-20.425c-3.182-5.292-11.674-6.255-16.026-1.099l-21.593 25.29c8.309-97.15 80.752-176.982 178.368-193.36zm17.14 426.333c-97.136-8.309-176.956-80.765-193.33-178.4-.809-4.819-4.978-8.348-9.863-8.348h-4.176l39.912-48.271 32.581 48.777c-1.852.613-3.507 1.762-4.738 3.335-1.896 2.424-2.57 5.587-1.827 8.574 8.726 35.12 29.236 66.907 57.753 89.507 23.46 18.593 50.748 30.182 79.914 34.111l-20.42 13.09c-5.312 3.159-6.236 11.688-1.09 16.024zm66.215-77.177v-3.041c.146-7.649-9.171-13.056-15.982-8.012l-25.277 18.87c-2.071.086-4.155.146-6.246.146-62.424 0-117.065-39.502-137.066-97.527h3.052c7.708.237 12.965-9.438 8.014-15.988l-18.868-25.271c-.087-2.074-.146-4.161-.146-6.255 0-62.436 39.495-117.086 97.51-137.091v3.053c-.237 7.709 9.436 12.968 15.985 8.015l25.267-18.871c2.075-.087 4.163-.147 6.253-.147 62.424 0 117.065 39.502 137.066 97.527h-3.052c-7.708-.237-12.965 9.438-8.014 15.988l18.87 25.273c.086 2.074.145 4.162.145 6.252.018 61.767-39.166 116.853-97.511 137.079z"/><circle cx="442.291" cy="382.2" r="10"/></g></svg>