<svg id="Layer_1" enable-background="new 0 0 68 68" height="512" viewBox="0 0 68 68" width="512" xmlns="http://www.w3.org/2000/svg"><g><path d="m9.70142 38.05469c0 .41406.33594.75.75.75h19.95313c.41406 0 .75-.33594.75-.75s-.33594-.75-.75-.75h-19.95313c-.41407 0-.75.33594-.75.75z"/><path d="m29.01392 44.05273h-18.5625c-.41406 0-.75.33594-.75.75s.33594.75.75.75h18.5625c.41406 0 .75-.33594.75-.75s-.33594-.75-.75-.75z"/><path d="m29.01392 50.80078h-18.5625c-.41406 0-.75.33594-.75.75s.33594.75.75.75h18.5625c.41406 0 .75-.33594.75-.75s-.33594-.75-.75-.75z"/><path d="m34.42603 14.88477h11.32617c.41406 0 .75-.33594.75-.75s-.33594-.75-.75-.75h-11.32617c-.41406 0-.75.33594-.75.75s.33593.75.75.75z"/><path d="m34.42603 21.63281h11.32617c.41406 0 .75-.33594.75-.75s-.33594-.75-.75-.75h-11.32617c-.41406 0-.75.33594-.75.75s.33593.75.75.75z"/><path d="m34.42603 28.38086h11.32617c.41406 0 .75-.33594.75-.75s-.33594-.75-.75-.75h-11.32617c-.41406 0-.75.33594-.75.75s.33593.75.75.75z"/><path d="m34.54028 57.54883h-24.08886c-.41406 0-.75.33594-.75.75s.33594.75.75.75h24.08887c.41406 0 .75-.33594.75-.75s-.33594-.75-.75001-.75z"/><path d="m62.0686 47.96973c.01758.00098.03418.00195.05078.00195.3916 0 .7207-.30371.74707-.7002.22168-3.35059-.51563-6.66309-2.13281-9.58008-.20215-.3623-.65723-.49219-1.01953-.29297-.3623.20117-.49316.65723-.29297 1.01953 1.47754 2.66504 2.15137 5.69238 1.94922 8.75391-.02734.41407.28516.77051.69824.79786z"/><path d="m56.76978 33.84082c-.29297.29297-.29297.76758 0 1.06055.24609.24609.48242.49805.70801.75586.14746.16992.35547.25684.56445.25684.17578 0 .35156-.06055.49316-.18555.3125-.27246.34375-.74609.07129-1.05762-.24707-.2832-.50684-.56055-.77637-.83008-.29297-.29297-.76758-.29297-1.06054 0z"/><path d="m39.37524 39.94043c-3.41662 3.4146-3.42021 8.93819-.00293 12.35547 3.41256 3.41256 8.94121 3.41328 12.3584-.00391 3.4043-3.40332 3.4043-8.94434 0-12.35156-3.41133-3.41134-8.94131-3.41618-12.35547 0zm11.29493 11.29102c-2.82422 2.82324-7.41504 2.8252-10.2373.00391-2.8297-2.8297-2.8283-7.40315.00293-10.23438 2.82393-2.82595 7.40517-2.8292 10.23438 0 2.81932 2.82226 2.81932 7.41113-.00001 10.23047z"/><path d="m63.86255 56.8418c-1.0274-1.0274-3.89514-2.96472-6.59637-4.13031 2.8819-5.12433 2.15784-11.74768-2.19757-16.10797-.45349-.45349-.93909-.85327-1.4375-1.22839v-30.89661c-.00001-1.36622-1.11231-2.47852-2.47852-2.47852h-46.10352c-1.36621 0-2.47851 1.1123-2.47851 2.47852v59.04297c0 1.36621 1.1123 2.47851 2.47851 2.47851h46.10352c1.36621 0 2.47852-1.1123 2.47852-2.47852v-2.79058c.96161 1.63171 1.98853 3.04376 2.64355 3.69879 2.09048 2.09048 5.49214 2.09185 7.58398 0 2.09278-2.09278 2.09473-5.49707.00391-7.58789zm-9.85449-2.27442c-4.59657 4.59764-12.18823 4.72974-16.91309.00488-4.66822-4.66822-4.63832-12.26943.00781-16.90625 0-.00098 0-.00098 0-.00098 4.6989-4.6989 12.27092-4.63533 16.90527-.00098 4.71859 4.72255 4.59162 12.31172.00001 16.90333zm-1.87696 8.9541c0 .54004-.43848.97852-.97852.97852h-46.10351c-.54004 0-.97852-.43848-.97852-.97852v-59.04296c.00001-.54004.43848-.97852.97852-.97852h46.10352c.54004 0 .97852.43848.97852.97852v29.89746c-5.12581-2.89239-11.62716-2.08768-15.93048 2.08179-5.46586 5.29406-5.43764 13.89642-.16718 19.177 4.27074 4.26205 10.85787 5.1693 16.09766 2.21777v5.66894zm10.667-.15234c-1.50586 1.50586-3.95703 1.50586-5.46289 0-.88843-.88843-2.61462-3.44861-3.7041-5.8786v-.61993c.49291-.37023 1.00544-.80671 1.4375-1.23877.49779-.49779 1.11163-1.24215 1.39746-1.63867 2.55762 1.06543 5.39258 2.96582 6.33594 3.90918 1.50585 1.50585 1.5039 3.958-.00391 5.46679z"/><path d="m15.8938 8.90039.21484-.19336c.30762-.27734.33301-.75098.05566-1.05957-.27832-.30762-.75195-.33301-1.05957-.05566l-.21484.19336c-.30762.27734-.33301.75098-.05566 1.05957.27907.30844.75211.33175 1.05957.05566z"/><path d="m10.69556 13.59277 3.36621-3.03906c.30664-.27734.33105-.75195.05371-1.05957-.27832-.30762-.75196-.33203-1.05957-.05371l-3.36621 3.03906c-.30664.27734-.33105.75195-.05371 1.05957.27996.30943.75491.32935 1.05957.05371z"/><path d="m10.0647 17.4043c-.34082.30762-.4541.7832-.28906 1.21094.16504.42676.56738.70313 1.02539.70313h1.14258v9.72754h-1.06641c-.41406 0-.75.33594-.75.75s.33594.75.75.75c-.1001.00006 1.07398.00204 17.94727 0 .41406 0 .75-.33594.75-.75s-.33594-.75-.75-.75h-1.06055v-9.72754h1.13574c1.00612 0 1.48292-1.23993.7373-1.91504l-9.04883-8.16895c-.41992-.37891-1.05273-.37891-1.47461 0l-9.04882 8.16895c0-.00001 0-.00001 0 .00097zm12.07129 11.6416h-4.57031v-4.30078c0-1.25977 1.02539-2.28516 2.28516-2.28516s2.28516 1.02539 2.28516 2.28516v4.30078zm1.5 0v-4.30078c0-2.08691-1.69824-3.78516-3.78516-3.78516s-3.78516 1.69824-3.78516 3.78516v4.30078h-2.62207v-9.72363h12.82031v9.72363zm-3.78516-18.45606 8.00684 7.22852h-16.01368z"/></g></svg>