<svg xmlns="http://www.w3.org/2000/svg" xmlns:xlink="http://www.w3.org/1999/xlink" width="500" zoomAndPan="magnify" viewBox="0 0 375 374.999991" height="500" preserveAspectRatio="xMidYMid meet" version="1.0"><defs><g/><clipPath id="be75d024aa"><path d="M 127 51 L 281.792969 51 L 281.792969 214.832031 L 127 214.832031 Z M 127 51 " clip-rule="nonzero"/></clipPath><clipPath id="b830ba96bd"><path d="M 93.542969 11.582031 L 281.792969 11.582031 L 281.792969 181 L 93.542969 181 Z M 93.542969 11.582031 " clip-rule="nonzero"/></clipPath></defs><g clip-path="url(#be75d024aa)"><path fill="#184a45" d="M 247.503906 180.582031 L 162.113281 180.582031 L 162.113281 163.460938 L 230.363281 163.460938 C 230.363281 140.816406 230.363281 118.179688 230.363281 95.539062 L 187.671875 70.90625 L 144.972656 95.539062 L 144.972656 197.710938 L 264.640625 197.710938 L 264.640625 146.332031 L 281.773438 146.332031 L 281.773438 214.832031 L 127.824219 214.832031 L 127.824219 85.644531 L 187.65625 51.128906 L 247.492188 85.644531 C 247.492188 117.292969 247.492188 148.9375 247.492188 180.582031 Z M 247.503906 180.582031 " fill-opacity="1" fill-rule="evenodd"/></g><g clip-path="url(#b830ba96bd)"><path fill="#fc766a" d="M 110.695312 75.761719 L 187.671875 31.359375 L 264.648438 75.761719 L 264.648438 105.421875 L 281.78125 105.421875 L 281.78125 65.875 L 187.671875 11.582031 L 93.554688 65.875 L 93.554688 180.582031 L 110.695312 180.582031 Z M 110.695312 75.761719 " fill-opacity="1" fill-rule="evenodd"/></g><path fill="#fc766a" d="M 184.523438 123.941406 L 172.414062 123.941406 L 172.414062 136.039062 L 184.523438 136.039062 Z M 172.414062 117.644531 L 184.523438 117.644531 L 184.523438 105.546875 L 172.414062 105.546875 Z M 190.816406 117.644531 L 202.925781 117.644531 L 202.925781 105.546875 L 190.816406 105.546875 Z M 190.816406 123.941406 L 190.816406 136.039062 L 202.925781 136.039062 L 202.925781 123.941406 Z M 190.816406 123.941406 " fill-opacity="1" fill-rule="evenodd"/><g fill="#fc766a" fill-opacity="1"><g transform="translate(20.659111, 283.923616)"><g><path d="M 22.171875 0.140625 C 21.492188 0.046875 20.332031 0 18.6875 0 L 14.71875 0 C 13.9375 0 13.296875 0.0195312 12.796875 0.0625 L 12.765625 0 C 12.859375 -0.15625 12.90625 -0.335938 12.90625 -0.546875 C 12.90625 -0.753906 12.882812 -0.972656 12.84375 -1.203125 C 12.8125 -1.429688 12.722656 -1.835938 12.578125 -2.421875 C 12.429688 -3.015625 12.207031 -3.875 11.90625 -5 L 0.28125 -45.65625 C 1.738281 -45.5625 3.503906 -45.515625 5.578125 -45.515625 C 7.648438 -45.515625 9 -45.609375 9.625 -45.796875 L 17.6875 -14.8125 L 25.5625 -45.65625 C 25.90625 -45.632812 26.210938 -45.613281 26.484375 -45.59375 L 27.25 -45.59375 C 28 -45.539062 28.941406 -45.515625 30.078125 -45.515625 C 31.222656 -45.515625 32.398438 -45.609375 33.609375 -45.796875 L 41.625 -14.8125 L 48.5 -45.65625 C 49.863281 -45.5625 51.648438 -45.515625 53.859375 -45.515625 C 56.078125 -45.515625 57.425781 -45.609375 57.90625 -45.796875 L 48.046875 -9.6875 C 46.796875 -5.53125 46.132812 -3.0625 46.0625 -2.28125 C 46 -1.507812 45.96875 -0.972656 45.96875 -0.671875 C 45.96875 -0.378906 46.015625 -0.144531 46.109375 0.03125 L 46.03125 0.140625 C 45.300781 0.046875 44.148438 0 42.578125 0 C 41.203125 0 39.957031 0 38.84375 0 C 37.726562 0 36.921875 0.0195312 36.421875 0.0625 L 36.375 0 C 36.46875 -0.15625 36.515625 -0.335938 36.515625 -0.546875 C 36.515625 -0.753906 36.503906 -0.957031 36.484375 -1.15625 C 36.460938 -1.363281 36.398438 -1.757812 36.296875 -2.34375 C 36.191406 -2.925781 36.023438 -3.785156 35.796875 -4.921875 L 34.875 -9.578125 L 29.265625 -30.90625 L 23.921875 -9.6875 C 22.828125 -5.332031 22.257812 -2.820312 22.21875 -2.15625 C 22.125 -0.90625 22.132812 -0.175781 22.25 0.03125 Z M 22.171875 0.140625 "/></g></g></g><g fill="#fc766a" fill-opacity="1"><g transform="translate(89.000013, 283.923616)"><g><path d="M 9.203125 0.28125 C 7.242188 0.09375 4.953125 0 2.328125 0 L -0.375 0 L 14.515625 -41.71875 C 15.171875 -43.59375 15.5 -44.679688 15.5 -44.984375 C 15.5 -45.296875 15.488281 -45.484375 15.46875 -45.546875 L 15.5 -45.625 C 16.988281 -45.550781 18.566406 -45.515625 20.234375 -45.515625 C 21.597656 -45.515625 23.238281 -45.539062 25.15625 -45.59375 L 25.1875 -45.515625 C 25.144531 -45.429688 25.125 -45.304688 25.125 -45.140625 C 25.125 -44.710938 25.460938 -43.5625 26.140625 -41.6875 L 41.34375 0.109375 C 40.882812 0.078125 40.347656 0.0625 39.734375 0.0625 C 39.734375 0.0625 39.140625 0.0390625 37.953125 0 C 37.378906 0 36.867188 0 36.421875 0 L 31.109375 0 L 27.890625 -9.859375 L 12.421875 -9.859375 Z M 25.21875 -18.078125 L 20.0625 -33.984375 L 15.03125 -18.078125 Z M 25.21875 -18.078125 "/></g></g></g><g fill="#fc766a" fill-opacity="1"><g transform="translate(139.782828, 283.923616)"><g><path d="M 12.5625 0 C 9.207031 0 6.984375 0.0664062 5.890625 0.203125 L 5.890625 -45.71875 C 6.429688 -45.582031 7.5625 -45.515625 9.28125 -45.515625 C 11.007812 -45.515625 13.015625 -45.5625 15.296875 -45.65625 L 15.296875 -8.21875 L 22.390625 -8.21875 C 24.441406 -8.21875 26.082031 -8.285156 27.3125 -8.421875 C 27.15625 -3.078125 27.078125 -0.304688 27.078125 -0.109375 L 27.078125 0.234375 C 24.835938 0.078125 21.082031 0 15.8125 0 Z M 12.5625 0 "/></g></g></g><g fill="#fc766a" fill-opacity="1"><g transform="translate(178.860246, 283.923616)"><g><path d="M 12.5625 0 C 9.207031 0 6.984375 0.0664062 5.890625 0.203125 L 5.890625 -45.71875 C 6.429688 -45.582031 7.5625 -45.515625 9.28125 -45.515625 C 11.007812 -45.515625 13.015625 -45.5625 15.296875 -45.65625 L 15.296875 -8.21875 L 22.390625 -8.21875 C 24.441406 -8.21875 26.082031 -8.285156 27.3125 -8.421875 C 27.15625 -3.078125 27.078125 -0.304688 27.078125 -0.109375 L 27.078125 0.234375 C 24.835938 0.078125 21.082031 0 15.8125 0 Z M 12.5625 0 "/></g></g></g><g fill="#fc766a" fill-opacity="1"><g transform="translate(217.937676, 283.923616)"><g><path d="M 9.203125 0.28125 C 7.242188 0.09375 4.953125 0 2.328125 0 L -0.375 0 L 14.515625 -41.71875 C 15.171875 -43.59375 15.5 -44.679688 15.5 -44.984375 C 15.5 -45.296875 15.488281 -45.484375 15.46875 -45.546875 L 15.5 -45.625 C 16.988281 -45.550781 18.566406 -45.515625 20.234375 -45.515625 C 21.597656 -45.515625 23.238281 -45.539062 25.15625 -45.59375 L 25.1875 -45.515625 C 25.144531 -45.429688 25.125 -45.304688 25.125 -45.140625 C 25.125 -44.710938 25.460938 -43.5625 26.140625 -41.6875 L 41.34375 0.109375 C 40.882812 0.078125 40.347656 0.0625 39.734375 0.0625 C 39.734375 0.0625 39.140625 0.0390625 37.953125 0 C 37.378906 0 36.867188 0 36.421875 0 L 31.109375 0 L 27.890625 -9.859375 L 12.421875 -9.859375 Z M 25.21875 -18.078125 L 20.0625 -33.984375 L 15.03125 -18.078125 Z M 25.21875 -18.078125 "/></g></g></g><g fill="#fc766a" fill-opacity="1"><g transform="translate(268.720495, 283.923616)"><g><path d="M 26.28125 -46.375 C 30.550781 -46.375 34.191406 -45.632812 37.203125 -44.15625 L 37.203125 -33.671875 L 37.140625 -33.609375 C 35.859375 -35.566406 33.164062 -36.867188 29.0625 -37.515625 C 27.851562 -37.710938 26.320312 -37.8125 24.46875 -37.8125 C 22.625 -37.8125 20.8125 -37.460938 19.03125 -36.765625 C 17.25 -36.078125 15.789062 -35.09375 14.65625 -33.8125 C 12.4375 -31.320312 11.328125 -27.773438 11.328125 -23.171875 C 11.328125 -17.804688 12.726562 -13.8125 15.53125 -11.1875 C 17.863281 -9 20.945312 -7.90625 24.78125 -7.90625 C 29.113281 -7.90625 32.628906 -8.828125 35.328125 -10.671875 C 36.304688 -11.335938 37.132812 -12.160156 37.8125 -13.140625 L 37.921875 -13.078125 L 37.921875 -3.484375 C 34.429688 -0.585938 29.734375 0.859375 23.828125 0.859375 C 16.859375 0.859375 11.40625 -1.351562 7.46875 -5.78125 C 3.675781 -10 1.78125 -15.585938 1.78125 -22.546875 C 1.78125 -29.921875 3.859375 -35.726562 8.015625 -39.96875 C 12.210938 -44.238281 18.300781 -46.375 26.28125 -46.375 Z M 26.28125 -46.375 "/></g></g></g><g fill="#fc766a" fill-opacity="1"><g transform="translate(319.195278, 283.923616)"><g><path d="M 28.78125 -8.21875 C 30.195312 -8.21875 31.179688 -8.351562 31.734375 -8.625 L 31.859375 -8.59375 L 31.515625 0 L 5.890625 0 L 5.890625 -45.765625 C 6.503906 -45.710938 7.1875 -45.675781 7.9375 -45.65625 L 10.34375 -45.59375 C 11.9375 -45.539062 13.664062 -45.515625 15.53125 -45.515625 C 20.757812 -45.515625 25.929688 -45.609375 31.046875 -45.796875 C 30.796875 -43.785156 30.671875 -41.101562 30.671875 -37.75 C 30.671875 -37.382812 30.691406 -37.109375 30.734375 -36.921875 L 30.671875 -36.828125 C 29.484375 -37.171875 27.789062 -37.34375 25.59375 -37.34375 L 14.8125 -37.34375 L 14.8125 -28.609375 L 22.9375 -28.609375 C 25.445312 -28.609375 26.953125 -28.675781 27.453125 -28.8125 L 27.546875 -20.359375 C 26.453125 -20.472656 25.039062 -20.53125 23.3125 -20.53125 L 14.8125 -20.53125 L 14.8125 -8.21875 Z M 28.78125 -8.21875 "/></g></g></g><g fill="#184a45" fill-opacity="1"><g transform="translate(1.89764, 350.52428)"><g><path d="M 3.0625 -26.828125 C 4.925781 -27.066406 6.832031 -27.1875 8.78125 -27.1875 C 12.425781 -27.1875 15.191406 -26.332031 17.078125 -24.625 C 18.972656 -22.925781 19.921875 -20.375 19.921875 -16.96875 C 19.921875 -13.9375 18.882812 -11.535156 16.8125 -9.765625 C 14.875 -8.109375 12.378906 -7.28125 9.328125 -7.28125 C 8.984375 -7.28125 8.601562 -7.300781 8.1875 -7.34375 L 8.1875 0 L 3.0625 0 Z M 9.390625 -22.359375 C 8.984375 -22.359375 8.582031 -22.34375 8.1875 -22.3125 L 8.1875 -11.765625 C 8.613281 -11.703125 9.132812 -11.671875 9.75 -11.671875 C 10.363281 -11.671875 11.003906 -11.800781 11.671875 -12.0625 C 12.347656 -12.320312 12.910156 -12.6875 13.359375 -13.15625 C 14.304688 -14.132812 14.78125 -15.421875 14.78125 -17.015625 C 14.78125 -20.578125 12.984375 -22.359375 9.390625 -22.359375 Z M 9.390625 -22.359375 "/></g></g></g><g fill="#184a45" fill-opacity="1"><g transform="translate(24.538389, 350.52428)"><g><path d="M 12.078125 -10.375 C 11.679688 -10.34375 11.253906 -10.328125 10.796875 -10.328125 C 10.335938 -10.328125 9.660156 -10.363281 8.765625 -10.4375 L 8.765625 0 L 3.453125 0 L 3.453125 -26.828125 C 5.328125 -27.066406 7.628906 -27.1875 10.359375 -27.1875 C 14.078125 -27.1875 16.847656 -26.5 18.671875 -25.125 C 20.492188 -23.757812 21.40625 -21.644531 21.40625 -18.78125 C 21.40625 -16.5625 20.570312 -14.660156 18.90625 -13.078125 C 18.351562 -12.566406 17.722656 -12.128906 17.015625 -11.765625 L 21.109375 -3.125 C 21.910156 -1.351562 22.523438 -0.296875 22.953125 0.046875 L 22.859375 0.140625 C 21.554688 -0.078125 19.515625 -0.0703125 16.734375 0.15625 Z M 10.734375 -22.453125 C 10.054688 -22.453125 9.398438 -22.421875 8.765625 -22.359375 L 8.765625 -14.6875 C 9.421875 -14.59375 10.191406 -14.546875 11.078125 -14.546875 C 11.960938 -14.546875 12.703125 -14.625 13.296875 -14.78125 C 13.898438 -14.9375 14.425781 -15.171875 14.875 -15.484375 C 15.820312 -16.191406 16.296875 -17.253906 16.296875 -18.671875 C 16.296875 -20.097656 15.800781 -21.097656 14.8125 -21.671875 C 13.882812 -22.191406 12.523438 -22.453125 10.734375 -22.453125 Z M 10.734375 -22.453125 "/></g></g></g><g fill="#184a45" fill-opacity="1"><g transform="translate(50.529894, 350.52428)"><g><path d="M 5.640625 -3.171875 C 4.421875 -4.335938 3.457031 -5.734375 2.75 -7.359375 C 2.050781 -8.992188 1.703125 -10.785156 1.703125 -12.734375 C 1.703125 -14.679688 2.03125 -16.523438 2.6875 -18.265625 C 3.34375 -20.003906 4.28125 -21.535156 5.5 -22.859375 C 6.71875 -24.179688 8.1875 -25.234375 9.90625 -26.015625 C 11.632812 -26.796875 13.570312 -27.1875 15.71875 -27.1875 C 19.40625 -27.1875 22.515625 -26.023438 25.046875 -23.703125 C 27.742188 -21.210938 29.09375 -17.851562 29.09375 -13.625 C 29.09375 -9.53125 27.703125 -6.125 24.921875 -3.40625 C 23.210938 -1.738281 21.171875 -0.585938 18.796875 0.046875 C 17.640625 0.347656 16.28125 0.5 14.71875 0.5 C 13.15625 0.5 11.554688 0.179688 9.921875 -0.453125 C 8.285156 -1.097656 6.859375 -2.003906 5.640625 -3.171875 Z M 7.28125 -13 C 7.28125 -11.757812 7.488281 -10.613281 7.90625 -9.5625 C 8.320312 -8.519531 8.894531 -7.625 9.625 -6.875 C 11.195312 -5.300781 13.210938 -4.515625 15.671875 -4.515625 C 18.015625 -4.515625 19.894531 -5.269531 21.3125 -6.78125 C 22.75 -8.34375 23.46875 -10.476562 23.46875 -13.1875 C 23.46875 -15.726562 22.78125 -17.847656 21.40625 -19.546875 C 19.925781 -21.359375 17.894531 -22.265625 15.3125 -22.265625 C 12.8125 -22.265625 10.820312 -21.34375 9.34375 -19.5 C 7.96875 -17.78125 7.28125 -15.613281 7.28125 -13 Z M 7.28125 -13 "/></g></g></g><g fill="#184a45" fill-opacity="1"><g transform="translate(83.383441, 350.52428)"><g><path d="M 3.0625 -26.828125 C 4.925781 -27.066406 6.832031 -27.1875 8.78125 -27.1875 C 12.425781 -27.1875 15.191406 -26.332031 17.078125 -24.625 C 18.972656 -22.925781 19.921875 -20.375 19.921875 -16.96875 C 19.921875 -13.9375 18.882812 -11.535156 16.8125 -9.765625 C 14.875 -8.109375 12.378906 -7.28125 9.328125 -7.28125 C 8.984375 -7.28125 8.601562 -7.300781 8.1875 -7.34375 L 8.1875 0 L 3.0625 0 Z M 9.390625 -22.359375 C 8.984375 -22.359375 8.582031 -22.34375 8.1875 -22.3125 L 8.1875 -11.765625 C 8.613281 -11.703125 9.132812 -11.671875 9.75 -11.671875 C 10.363281 -11.671875 11.003906 -11.800781 11.671875 -12.0625 C 12.347656 -12.320312 12.910156 -12.6875 13.359375 -13.15625 C 14.304688 -14.132812 14.78125 -15.421875 14.78125 -17.015625 C 14.78125 -20.578125 12.984375 -22.359375 9.390625 -22.359375 Z M 9.390625 -22.359375 "/></g></g></g><g fill="#184a45" fill-opacity="1"><g transform="translate(106.024186, 350.52428)"><g><path d="M 16.875 -4.8125 C 17.707031 -4.8125 18.28125 -4.894531 18.59375 -5.0625 L 18.6875 -5.03125 L 18.484375 0 L 3.453125 0 L 3.453125 -26.828125 C 3.816406 -26.796875 4.21875 -26.773438 4.65625 -26.765625 L 6.0625 -26.734375 C 7 -26.703125 8.015625 -26.6875 9.109375 -26.6875 C 12.171875 -26.6875 15.203125 -26.738281 18.203125 -26.84375 C 18.054688 -25.664062 17.984375 -24.09375 17.984375 -22.125 C 17.984375 -21.914062 17.992188 -21.757812 18.015625 -21.65625 L 17.984375 -21.59375 C 17.285156 -21.789062 16.296875 -21.890625 15.015625 -21.890625 L 8.6875 -21.890625 L 8.6875 -16.78125 L 13.4375 -16.78125 C 14.914062 -16.78125 15.800781 -16.816406 16.09375 -16.890625 L 16.15625 -11.9375 C 15.507812 -12.007812 14.679688 -12.046875 13.671875 -12.046875 L 8.6875 -12.046875 L 8.6875 -4.8125 Z M 16.875 -4.8125 "/></g></g></g><g fill="#184a45" fill-opacity="1"><g transform="translate(128.664931, 350.52428)"><g><path d="M 12.078125 -10.375 C 11.679688 -10.34375 11.253906 -10.328125 10.796875 -10.328125 C 10.335938 -10.328125 9.660156 -10.363281 8.765625 -10.4375 L 8.765625 0 L 3.453125 0 L 3.453125 -26.828125 C 5.328125 -27.066406 7.628906 -27.1875 10.359375 -27.1875 C 14.078125 -27.1875 16.847656 -26.5 18.671875 -25.125 C 20.492188 -23.757812 21.40625 -21.644531 21.40625 -18.78125 C 21.40625 -16.5625 20.570312 -14.660156 18.90625 -13.078125 C 18.351562 -12.566406 17.722656 -12.128906 17.015625 -11.765625 L 21.109375 -3.125 C 21.910156 -1.351562 22.523438 -0.296875 22.953125 0.046875 L 22.859375 0.140625 C 21.554688 -0.078125 19.515625 -0.0703125 16.734375 0.15625 Z M 10.734375 -22.453125 C 10.054688 -22.453125 9.398438 -22.421875 8.765625 -22.359375 L 8.765625 -14.6875 C 9.421875 -14.59375 10.191406 -14.546875 11.078125 -14.546875 C 11.960938 -14.546875 12.703125 -14.625 13.296875 -14.78125 C 13.898438 -14.9375 14.425781 -15.171875 14.875 -15.484375 C 15.820312 -16.191406 16.296875 -17.253906 16.296875 -18.671875 C 16.296875 -20.097656 15.800781 -21.097656 14.8125 -21.671875 C 13.882812 -22.191406 12.523438 -22.453125 10.734375 -22.453125 Z M 10.734375 -22.453125 "/></g></g></g><g fill="#184a45" fill-opacity="1"><g transform="translate(154.656436, 350.52428)"><g><path d="M 13.078125 0.125 C 12.441406 0.0390625 10.789062 0 8.125 0 L 7.484375 0 L 7.484375 -22.1875 L 3.515625 -22.1875 C 2.335938 -22.1875 1.640625 -22.125 1.421875 -22 C 1.210938 -21.882812 1.046875 -21.78125 0.921875 -21.6875 L 0.859375 -21.703125 L 0.859375 -26.84375 L 0.921875 -26.90625 C 1.359375 -26.757812 2.550781 -26.6875 4.5 -26.6875 L 17.078125 -26.6875 C 18.253906 -26.6875 18.945312 -26.742188 19.15625 -26.859375 C 19.375 -26.984375 19.539062 -27.09375 19.65625 -27.1875 L 19.71875 -27.171875 L 19.71875 -22.03125 L 19.65625 -21.96875 C 19.21875 -22.113281 18.03125 -22.1875 16.09375 -22.1875 L 13.078125 -22.1875 Z M 13.078125 0.125 "/></g></g></g><g fill="#184a45" fill-opacity="1"><g transform="translate(177.297181, 350.52428)"><g><path d="M 9.046875 0 C 9.222656 -0.519531 9.3125 -1.738281 9.3125 -3.65625 L 9.3125 -9.234375 C 7 -14.328125 5.519531 -17.503906 4.875 -18.765625 C 4.226562 -20.035156 3.6875 -21.035156 3.25 -21.765625 C 1.851562 -24.117188 1.007812 -25.46875 0.71875 -25.8125 C 0.4375 -26.164062 0.148438 -26.457031 -0.140625 -26.6875 L 6.78125 -26.6875 C 6.925781 -26.414062 7.128906 -26.019531 7.390625 -25.5 L 12.234375 -15.25 C 12.460938 -15.8125 12.734375 -16.441406 13.046875 -17.140625 C 15.960938 -23.410156 17.441406 -26.59375 17.484375 -26.6875 L 24.09375 -26.6875 C 23.414062 -26.132812 22.582031 -24.984375 21.59375 -23.234375 C 21.28125 -22.710938 20.972656 -22.117188 20.671875 -21.453125 L 16.125 -12 C 15.625 -10.863281 15.191406 -9.835938 14.828125 -8.921875 L 14.828125 -3.171875 C 14.828125 -1.828125 14.90625 -0.769531 15.0625 0 Z M 9.046875 0 "/></g></g></g><g fill="#184a45" fill-opacity="1"><g transform="translate(203.288698, 350.52428)"><g/></g></g><g fill="#184a45" fill-opacity="1"><g transform="translate(218.967085, 350.52428)"><g><path d="M 20.3125 -1.953125 C 19.332031 -1.171875 18.054688 -0.566406 16.484375 -0.140625 C 14.921875 0.285156 13 0.5 10.71875 0.5 C 8.4375 0.5 6.015625 0.289062 3.453125 -0.125 L 3.453125 -26.5625 C 6.046875 -26.976562 8.296875 -27.1875 10.203125 -27.1875 C 12.109375 -27.1875 13.671875 -27.003906 14.890625 -26.640625 C 16.117188 -26.285156 17.117188 -25.800781 17.890625 -25.1875 C 19.421875 -23.988281 20.1875 -22.441406 20.1875 -20.546875 C 20.1875 -18.660156 19.5 -17.097656 18.125 -15.859375 C 19.75 -15.347656 21.007812 -14.382812 21.90625 -12.96875 C 22.726562 -11.695312 23.140625 -10.285156 23.140625 -8.734375 C 23.140625 -7.191406 22.914062 -5.867188 22.46875 -4.765625 C 22.019531 -3.671875 21.300781 -2.734375 20.3125 -1.953125 Z M 8.765625 -16.59375 C 9.328125 -16.5 10.03125 -16.453125 10.875 -16.453125 C 11.71875 -16.453125 12.410156 -16.5625 12.953125 -16.78125 C 13.492188 -17 13.910156 -17.28125 14.203125 -17.625 C 14.679688 -18.164062 14.921875 -18.925781 14.921875 -19.90625 C 14.921875 -21.945312 13.71875 -22.96875 11.3125 -22.96875 C 10.300781 -22.96875 9.453125 -22.929688 8.765625 -22.859375 Z M 11.734375 -12.296875 C 10.609375 -12.296875 9.617188 -12.222656 8.765625 -12.078125 L 8.765625 -4.1875 C 9.703125 -3.945312 10.6875 -3.828125 11.71875 -3.828125 C 12.75 -3.828125 13.65625 -3.953125 14.4375 -4.203125 C 15.21875 -4.453125 15.875 -4.789062 16.40625 -5.21875 C 17.488281 -6.101562 18.03125 -7.226562 18.03125 -8.59375 C 18.03125 -11.0625 15.929688 -12.296875 11.734375 -12.296875 Z M 11.734375 -12.296875 "/></g></g></g><g fill="#184a45" fill-opacity="1"><g transform="translate(245.038847, 350.52428)"><g><path d="M 18.65625 -26.78125 C 19.488281 -26.71875 20.179688 -26.6875 20.734375 -26.6875 L 22.390625 -26.6875 C 22.953125 -26.6875 23.539062 -26.738281 24.15625 -26.84375 L 24.15625 -10.25 C 24.15625 -6.957031 23.160156 -4.316406 21.171875 -2.328125 C 19.285156 -0.441406 16.914062 0.5 14.0625 0.5 C 10.945312 0.5 8.425781 -0.304688 6.5 -1.921875 C 4.34375 -3.742188 3.265625 -6.367188 3.265625 -9.796875 L 3.265625 -26.78125 C 4.378906 -26.71875 5.425781 -26.6875 6.40625 -26.6875 C 7.394531 -26.6875 8.207031 -26.738281 8.84375 -26.84375 L 8.84375 -9.53125 C 8.84375 -7.84375 9.359375 -6.53125 10.390625 -5.59375 C 11.359375 -4.738281 12.5625 -4.3125 14 -4.3125 C 16.144531 -4.3125 17.570312 -5.410156 18.28125 -7.609375 C 18.53125 -8.390625 18.65625 -9.363281 18.65625 -10.53125 Z M 18.65625 -26.78125 "/></g></g></g><g fill="#184a45" fill-opacity="1"><g transform="translate(274.541627, 350.52428)"><g><path d="M 9.046875 0 C 9.222656 -0.519531 9.3125 -1.738281 9.3125 -3.65625 L 9.3125 -9.234375 C 7 -14.328125 5.519531 -17.503906 4.875 -18.765625 C 4.226562 -20.035156 3.6875 -21.035156 3.25 -21.765625 C 1.851562 -24.117188 1.007812 -25.46875 0.71875 -25.8125 C 0.4375 -26.164062 0.148438 -26.457031 -0.140625 -26.6875 L 6.78125 -26.6875 C 6.925781 -26.414062 7.128906 -26.019531 7.390625 -25.5 L 12.234375 -15.25 C 12.460938 -15.8125 12.734375 -16.441406 13.046875 -17.140625 C 15.960938 -23.410156 17.441406 -26.59375 17.484375 -26.6875 L 24.09375 -26.6875 C 23.414062 -26.132812 22.582031 -24.984375 21.59375 -23.234375 C 21.28125 -22.710938 20.972656 -22.117188 20.671875 -21.453125 L 16.125 -12 C 15.625 -10.863281 15.191406 -9.835938 14.828125 -8.921875 L 14.828125 -3.171875 C 14.828125 -1.828125 14.90625 -0.769531 15.0625 0 Z M 9.046875 0 "/></g></g></g><g fill="#184a45" fill-opacity="1"><g transform="translate(300.533133, 350.52428)"><g><path d="M 16.875 -4.8125 C 17.707031 -4.8125 18.28125 -4.894531 18.59375 -5.0625 L 18.6875 -5.03125 L 18.484375 0 L 3.453125 0 L 3.453125 -26.828125 C 3.816406 -26.796875 4.21875 -26.773438 4.65625 -26.765625 L 6.0625 -26.734375 C 7 -26.703125 8.015625 -26.6875 9.109375 -26.6875 C 12.171875 -26.6875 15.203125 -26.738281 18.203125 -26.84375 C 18.054688 -25.664062 17.984375 -24.09375 17.984375 -22.125 C 17.984375 -21.914062 17.992188 -21.757812 18.015625 -21.65625 L 17.984375 -21.59375 C 17.285156 -21.789062 16.296875 -21.890625 15.015625 -21.890625 L 8.6875 -21.890625 L 8.6875 -16.78125 L 13.4375 -16.78125 C 14.914062 -16.78125 15.800781 -16.816406 16.09375 -16.890625 L 16.15625 -11.9375 C 15.507812 -12.007812 14.679688 -12.046875 13.671875 -12.046875 L 8.6875 -12.046875 L 8.6875 -4.8125 Z M 16.875 -4.8125 "/></g></g></g><g fill="#184a45" fill-opacity="1"><g transform="translate(323.173878, 350.52428)"><g><path d="M 12.078125 -10.375 C 11.679688 -10.34375 11.253906 -10.328125 10.796875 -10.328125 C 10.335938 -10.328125 9.660156 -10.363281 8.765625 -10.4375 L 8.765625 0 L 3.453125 0 L 3.453125 -26.828125 C 5.328125 -27.066406 7.628906 -27.1875 10.359375 -27.1875 C 14.078125 -27.1875 16.847656 -26.5 18.671875 -25.125 C 20.492188 -23.757812 21.40625 -21.644531 21.40625 -18.78125 C 21.40625 -16.5625 20.570312 -14.660156 18.90625 -13.078125 C 18.351562 -12.566406 17.722656 -12.128906 17.015625 -11.765625 L 21.109375 -3.125 C 21.910156 -1.351562 22.523438 -0.296875 22.953125 0.046875 L 22.859375 0.140625 C 21.554688 -0.078125 19.515625 -0.0703125 16.734375 0.15625 Z M 10.734375 -22.453125 C 10.054688 -22.453125 9.398438 -22.421875 8.765625 -22.359375 L 8.765625 -14.6875 C 9.421875 -14.59375 10.191406 -14.546875 11.078125 -14.546875 C 11.960938 -14.546875 12.703125 -14.625 13.296875 -14.78125 C 13.898438 -14.9375 14.425781 -15.171875 14.875 -15.484375 C 15.820312 -16.191406 16.296875 -17.253906 16.296875 -18.671875 C 16.296875 -20.097656 15.800781 -21.097656 14.8125 -21.671875 C 13.882812 -22.191406 12.523438 -22.453125 10.734375 -22.453125 Z M 10.734375 -22.453125 "/></g></g></g><g fill="#184a45" fill-opacity="1"><g transform="translate(349.165383, 350.52428)"><g><path d="M 19.5625 -25.203125 L 19.1875 -19.296875 L 19.046875 -19.265625 C 18.054688 -20.742188 16.367188 -21.707031 13.984375 -22.15625 C 13.234375 -22.300781 12.515625 -22.375 11.828125 -22.375 C 11.140625 -22.375 10.550781 -22.3125 10.0625 -22.1875 C 9.570312 -22.070312 9.15625 -21.898438 8.8125 -21.671875 C 8.070312 -21.191406 7.703125 -20.5625 7.703125 -19.78125 C 7.703125 -18.769531 8.023438 -18.007812 8.671875 -17.5 C 9.472656 -16.882812 10.800781 -16.453125 12.65625 -16.203125 C 14.519531 -15.953125 16.015625 -15.613281 17.140625 -15.1875 C 18.265625 -14.757812 19.1875 -14.21875 19.90625 -13.5625 C 21.269531 -12.332031 21.953125 -10.59375 21.953125 -8.34375 C 21.953125 -5.40625 20.84375 -3.140625 18.625 -1.546875 C 16.71875 -0.179688 14.320312 0.5 11.4375 0.5 C 9.113281 0.5 6.8125 0.0546875 4.53125 -0.828125 C 3.78125 -1.117188 3.125 -1.457031 2.5625 -1.84375 L 2.796875 -8.546875 L 2.875 -8.609375 C 4.53125 -5.742188 7.25 -4.3125 11.03125 -4.3125 C 13.71875 -4.3125 15.5 -4.960938 16.375 -6.265625 C 16.664062 -6.703125 16.8125 -7.191406 16.8125 -7.734375 C 16.8125 -8.273438 16.722656 -8.722656 16.546875 -9.078125 C 16.378906 -9.429688 16.09375 -9.738281 15.6875 -10 C 14.914062 -10.5 13.613281 -10.835938 11.78125 -11.015625 C 9.945312 -11.191406 8.445312 -11.519531 7.28125 -12 C 6.113281 -12.476562 5.1875 -13.070312 4.5 -13.78125 C 3.238281 -15.070312 2.609375 -16.863281 2.609375 -19.15625 C 2.609375 -21.539062 3.441406 -23.46875 5.109375 -24.9375 C 6.816406 -26.4375 9.109375 -27.1875 11.984375 -27.1875 C 14.867188 -27.1875 17.394531 -26.523438 19.5625 -25.203125 Z M 19.5625 -25.203125 "/></g></g></g></svg>