<svg id="Capa_1" enable-background="new 0 0 512 512" height="512" viewBox="0 0 512 512" width="512" xmlns="http://www.w3.org/2000/svg"><g><g><g><g><path d="m371.207 108.554c-4.347-3.408-10.631-2.648-14.04 1.698l-119.857 152.838c-3.408 4.346-2.647 10.632 1.698 14.04 4.289 3.363 10.682 2.583 14.04-1.698l119.857-152.838c3.408-4.346 2.648-10.632-1.698-14.04z"/><path d="m259.14 106.423c-21.712 0-39.375 17.74-39.375 39.546 1.982 52.392 76.777 52.378 78.751-.001-.001-21.805-17.664-39.545-39.376-39.545zm0 59.092c-10.684 0-19.375-8.768-19.375-19.546.977-25.895 37.778-25.889 38.751 0-.001 10.778-8.693 19.546-19.376 19.546z"/><path d="m309.552 239.715c0 21.806 17.663 39.546 39.375 39.546 52.165-1.986 52.151-77.114-.001-79.092-21.711.001-39.374 17.741-39.374 39.546zm58.751 0c0 10.778-8.692 19.546-19.376 19.546-25.667-.98-25.66-38.116 0-39.092 10.683.001 19.376 8.769 19.376 19.546z"/><path d="m136.045 96.955c-31.744 0-57.569 25.825-57.569 57.569v76.075c2.903 76.288 112.262 76.229 115.138 0v-76.075c0-31.744-25.825-57.569-57.569-57.569zm37.569 133.643c-1.895 49.784-73.261 49.747-75.138 0v-76.075c1.895-49.785 73.261-49.746 75.138 0z"/><path d="m241.796 396.47c11.238-.348 11.23-16.655 0-17h-20.01c-4.694 0-8.5 3.806-8.5 8.5v59.269c.348 11.238 16.655 11.23 17 0v-21.696h9.602c11.238-.348 11.23-16.655 0-17h-9.602v-12.073z"/><path d="m292.484 396.524c11.238-.348 11.23-16.655 0-17h-19.914c-4.694 0-8.5 3.806-8.5 8.5v59.161c0 4.694 3.806 8.5 8.5 8.5h19.914c11.238-.348 11.23-16.655 0-17h-11.414v-12.581h9.576c11.238-.348 11.23-16.655 0-17h-9.576v-12.581z"/><path d="m345.132 396.524c11.238-.348 11.23-16.655 0-17h-19.913c-4.694 0-8.5 3.806-8.5 8.5v59.161c0 4.694 3.806 8.5 8.5 8.5h19.913c11.238-.348 11.23-16.655 0-17h-11.413v-12.581h9.575c11.238-.348 11.23-16.655 0-17h-9.575v-12.581z"/><path d="m405.312 410.1c-7.157-2.64-13.833-5.511-16.063-6.486-1.069-.931-1.087-2.158-.987-2.848.123-.857.761-2.956 4.022-3.938 7.843-2.364 15.22 3.404 15.476 3.609 3.592 2.973 8.919 2.499 11.927-1.079 3.021-3.593 2.556-8.955-1.037-11.976-.582-.488-14.422-11.908-31.27-6.832-8.633 2.601-14.743 9.421-15.946 17.8-1.132 7.887 2.288 15.474 8.925 19.801.376.245.77.459 1.18.642.347.155 8.6 3.829 17.892 7.256 1.852.683 7.839 3.204 7.166 6.974-2.781 9.338-18.784 6.265-23.917-.125-3.153-3.477-8.528-3.743-12.007-.59-3.479 3.152-3.743 8.528-.591 12.006 14.595 16.938 48.294 16.07 53.25-8.303 1.56-8.737-2.354-20.133-18.02-25.911z"/><path d="m148.098 381.523c-19.585 0-35.52 15.934-35.52 35.52 1.786 47.057 69.261 47.044 71.04 0 0-19.586-15.934-35.52-35.52-35.52zm0 54.04c-10.212 0-18.52-8.308-18.52-18.52.931-24.536 36.112-24.529 37.04 0 0 10.212-8.308 18.52-18.52 18.52z"/><path d="m89.928 380.542c-.028 0-.056 0-.084 0-4.694.045-8.463 3.888-8.417 8.582l.283 29.235-23.51-34.043c-2.113-3.061-5.97-4.392-9.524-3.285-3.551 1.107-5.97 4.395-5.97 8.115v55.898c.348 11.238 16.655 11.23 17 0v-28.631l22.304 32.297c2.438 3.523 6.529 5.012 10.422 3.798 3.959-1.237 6.518-4.907 6.518-9.433l-.523-54.116c-.047-4.666-3.843-8.417-8.499-8.417z"/><path d="m512 66.151c-.742-70.563-95.7-90.794-125.599-28.015h-118.413c-5.522 0-10 4.477-10 10s4.478 10 10 10h112.635c-4.974 37.813 25.756 73.212 63.816 73.928v194.3h-424.439v-233.376c0-19.217 15.635-34.852 34.852-34.852h124.89c5.523 0 10-4.477 10-10s-4.477-10-10-10h-124.89c-30.246 0-54.852 24.607-54.852 54.852l.001 363.634c0 30.244 24.605 54.85 54.85 54.85h354.741c30.244 0 54.85-24.605 54.85-54.85l-.002-327.163c27.44-7.976 47.56-33.328 47.56-63.308zm-65.932-45.932c25.327 0 45.932 20.605 45.932 45.932-3.041 60.874-88.838 60.837-91.859-.002 0-24.925 21.01-45.93 45.927-45.93zm-36.476 471.253h-354.741c-19.216 0-34.85-15.633-34.85-34.85v-110.256h424.44v110.257c0 19.216-15.633 34.849-34.849 34.849z"/><path d="m432.121 88.228c3.724 3.874 10.418 3.874 14.143 0l25.74-25.741c3.905-3.905 3.905-10.237 0-14.142-3.906-3.905-10.236-3.905-14.143 0l-18.669 18.669-6.555-6.555c-3.905-3.905-10.235-3.905-14.143 0-3.905 3.905-3.905 10.237 0 14.142z"/><path d="m214.61 51.965c1.641 3.94 5.708 6.447 9.964 6.142 4.354-.313 8.047-3.542 9.021-7.782 1.942-8.46-7.599-15.164-14.936-10.733-4.18 2.525-5.896 7.868-4.049 12.373z"/></g></g></g></g></svg>