<svg height="512" viewBox="0 0 74 74" width="512" xmlns="http://www.w3.org/2000/svg"><g id="line_icons" data-name="line icons"><path d="m49.872 72h-45.772a1 1 0 0 1 -1-1v-4.752a1 1 0 0 1 1-1h45.77a1 1 0 0 1 1 1v4.752a1 1 0 0 1 -.998 1zm-44.772-2h43.77v-2.752h-43.77z"/><path d="m17.214 45.667h-8.836a1 1 0 0 1 -1-1v-4.421a1 1 0 0 1 1-1h8.836a1 1 0 0 1 1 1v4.421a1 1 0 0 1 -1 1zm-7.836-2h6.836v-2.421h-6.836z"/><path d="m17.214 67.248h-8.836a1 1 0 0 1 -1-1v-4.056a1 1 0 0 1 1-1h8.836a1 1 0 0 1 1 1v4.056a1 1 0 0 1 -1 1zm-7.836-2h6.836v-2.056h-6.836z"/><path d="m15.436 63.192h-5.28a1 1 0 0 1 -1-1v-17.525a1 1 0 0 1 1-1h5.28a1 1 0 0 1 1 1v17.525a1 1 0 0 1 -1 1zm-4.28-2h3.28v-15.525h-3.28z"/><path d="m31.4 45.667h-8.832a1 1 0 0 1 -1-1v-4.421a1 1 0 0 1 1-1h8.832a1 1 0 0 1 1 1v4.421a1 1 0 0 1 -1 1zm-7.836-2h6.836v-2.421h-6.832z"/><path d="m31.4 67.248h-8.832a1 1 0 0 1 -1-1v-4.056a1 1 0 0 1 1-1h8.832a1 1 0 0 1 1 1v4.056a1 1 0 0 1 -1 1zm-7.836-2h6.836v-2.056h-6.832z"/><path d="m29.626 63.192h-5.279a1 1 0 0 1 -1-1v-17.525a1 1 0 0 1 1-1h5.279a1 1 0 0 1 1 1v17.525a1 1 0 0 1 -1 1zm-4.279-2h3.279v-15.525h-3.279z"/><path d="m45.6 45.667h-8.841a1 1 0 0 1 -1-1v-4.421a1 1 0 0 1 1-1h8.841a1 1 0 0 1 1 1v4.421a1 1 0 0 1 -1 1zm-7.837-2h6.837v-2.421h-6.841z"/><path d="m45.6 67.248h-8.841a1 1 0 0 1 -1-1v-4.056a1 1 0 0 1 1-1h8.841a1 1 0 0 1 1 1v4.056a1 1 0 0 1 -1 1zm-7.837-2h6.837v-2.056h-6.841z"/><path d="m43.816 63.192h-5.279a1 1 0 0 1 -1-1v-17.525a1 1 0 0 1 1-1h5.279a1 1 0 0 1 1 1v17.525a1 1 0 0 1 -1 1zm-4.279-2h3.279v-15.525h-3.279z"/><path d="m51.647 41.246h-49.322a1 1 0 0 1 -.653-1.757l24.661-21.3a1 1 0 0 1 1.307 0l24.66 21.3a1 1 0 0 1 -.654 1.757zm-46.633-2h43.945l-21.973-18.975z"/><path d="m26.986 33.4a4.181 4.181 0 1 1 4.182-4.181 4.185 4.185 0 0 1 -4.182 4.181zm0-6.362a2.181 2.181 0 1 0 2.182 2.181 2.183 2.183 0 0 0 -2.182-2.18z"/><path d="m56.229 30.872a14.436 14.436 0 1 1 14.436-14.436 14.452 14.452 0 0 1 -14.436 14.436zm0-26.872a12.436 12.436 0 1 0 12.436 12.436 12.45 12.45 0 0 0 -12.436-12.436z"/><path d="m59.343 22.064h-6a1 1 0 0 1 -.6-1.8 1.557 1.557 0 0 0 .62-1.115l.5-6.4a2.949 2.949 0 0 1 5.886.251v.268a1 1 0 1 1 -2 0v-.268a.949.949 0 0 0 -1.894-.082l-.5 6.4a3.565 3.565 0 0 1 -.146.751h4.135a1 1 0 0 1 0 2z"/><path d="m56.313 17.468h-3.2a1 1 0 0 1 0-2h3.2a1 1 0 0 1 0 2z"/><path d="m56.229 27.024a10.588 10.588 0 1 1 10.587-10.588 10.6 10.6 0 0 1 -10.587 10.588zm0-19.176a8.588 8.588 0 1 0 8.587 8.588 8.6 8.6 0 0 0 -8.587-8.588z"/><path d="m17.559 18.337a1 1 0 0 1 -1-1v-5.562a3.849 3.849 0 0 1 3.841-3.845h12.019a1 1 0 0 1 0 2h-12.019a1.847 1.847 0 0 0 -1.844 1.845v5.562a1 1 0 0 1 -.997 1z"/><path d="m28.343 13.512a1 1 0 0 1 -.66-1.751l3.217-2.831-3.217-2.83a1 1 0 1 1 1.317-1.5l4.076 3.581a1 1 0 0 1 0 1.5l-4.076 3.582a1 1 0 0 1 -.657.249z"/><path d="m67.345 58.06h-12.016a1 1 0 0 1 0-2h12.016a1.847 1.847 0 0 0 1.844-1.845v-5.562a1 1 0 1 1 2 0v5.562a3.849 3.849 0 0 1 -3.844 3.845z"/><path d="m59.405 61.641a1 1 0 0 1 -.66-.249l-4.076-3.581a1 1 0 0 1 0-1.5l4.076-3.581a1 1 0 0 1 1.32 1.5l-3.221 2.83 3.221 2.83a1 1 0 0 1 -.66 1.751z"/></g></svg>